<?xml version="1.0" encoding="utf-8"?>
<!-- Generator: Adobe Illustrator 23.0.3, SVG Export Plug-In . SVG Version: 6.00 Build 0)  -->
<svg version="1.1" id="圖層_1" xmlns="http://www.w3.org/2000/svg" xmlns:xlink="http://www.w3.org/1999/xlink" x="0px" y="0px"
	 viewBox="0 0 120 70" style="enable-background:new 0 0 120 70;" xml:space="preserve">
<style type="text/css">
	.st0{clip-path:url(#SVGID_2_);}
	.st1{fill:none;}
	.st2{fill:#DBEEFF;}
	.st3{fill:#B2D3FF;}
	.st4{fill:#173060;}
	.st5{fill:#464655;}
	.st6{fill:#62A1D2;}
	.st7{fill:#5687AE;}
	.st8{fill:#53DCFF;}
	.st9{fill:#B3F4FF;}
</style>
<g>
	<defs>
		<rect id="SVGID_1_" width="120" height="70"/>
	</defs>
	<clipPath id="SVGID_2_">
		<use xlink:href="#SVGID_1_"  style="overflow:visible;"/>
	</clipPath>
	<g class="st0">
		<rect class="st1" width="120" height="70"/>
		<g transform="translate(25 8)">
			<g transform="translate(4.419 9.943)">
				<rect x="0" y="0" class="st2" width="61.9" height="43.1"/>
			</g>
			<g transform="translate(4.419 46.402)">
				<rect x="0" y="0" class="st3" width="61.9" height="6.6"/>
			</g>
			<g transform="translate(4.419 7.734)">
				<rect x="0" y="0" class="st3" width="61.9" height="7.7"/>
			</g>
			<g transform="translate(9.943 17.677)">
				<path class="st4" d="M16.6,0H1.1C0.5,0,0,0.5,0,1.1l0,0v33.1h17.7V1.1C17.7,0.5,17.2,0,16.6,0C16.6,0,16.6,0,16.6,0z"/>
			</g>
			<g transform="translate(0 51.926)">
				<path class="st5" d="M69.6,2.2H1.1C0.5,2.2,0,1.7,0,1.1C0,0.5,0.5,0,1.1,0h68.5c0.6,0,1.1,0.5,1.1,1.1
					C70.7,1.7,70.2,2.2,69.6,2.2z"/>
			</g>
			<g transform="translate(2.21)">
				<path class="st6" d="M3.3,13.3L3.3,13.3C1.5,13.3,0,11.8,0,9.9c0,0,0,0,0,0V2.2C0,1,1,0,2.2,0h4.4v9.9
					C6.6,11.8,5.1,13.3,3.3,13.3C3.3,13.3,3.3,13.3,3.3,13.3z"/>
			</g>
			<g transform="translate(8.839)">
				<path class="st7" d="M3.3,13.3L3.3,13.3C1.5,13.3,0,11.8,0,9.9c0,0,0,0,0,0V0h6.6v9.9C6.6,11.8,5.1,13.3,3.3,13.3
					C3.3,13.3,3.3,13.3,3.3,13.3z"/>
			</g>
			<g transform="translate(15.467)">
				<path class="st6" d="M3.3,13.3L3.3,13.3C1.5,13.3,0,11.8,0,9.9c0,0,0,0,0,0V0h6.6v9.9C6.6,11.8,5.1,13.3,3.3,13.3
					C3.3,13.3,3.3,13.3,3.3,13.3z"/>
			</g>
			<g transform="translate(22.096)">
				<path class="st7" d="M3.3,13.3L3.3,13.3C1.5,13.3,0,11.8,0,9.9c0,0,0,0,0,0V0h6.6v9.9C6.6,11.8,5.1,13.3,3.3,13.3
					C3.3,13.3,3.3,13.3,3.3,13.3z"/>
			</g>
			<g transform="translate(28.725)">
				<path class="st6" d="M3.3,13.3L3.3,13.3C1.5,13.3,0,11.8,0,9.9c0,0,0,0,0,0V0h6.6v9.9C6.6,11.8,5.1,13.3,3.3,13.3
					C3.3,13.3,3.3,13.3,3.3,13.3z"/>
			</g>
			<g transform="translate(35.354)">
				<path class="st7" d="M3.3,13.3L3.3,13.3C1.5,13.3,0,11.8,0,9.9c0,0,0,0,0,0V0h6.6v9.9C6.6,11.8,5.1,13.3,3.3,13.3
					C3.3,13.3,3.3,13.3,3.3,13.3z"/>
			</g>
			<g transform="translate(41.983)">
				<path class="st6" d="M3.3,13.3L3.3,13.3C1.5,13.3,0,11.8,0,9.9c0,0,0,0,0,0V0h6.6v9.9C6.6,11.8,5.1,13.3,3.3,13.3
					C3.3,13.3,3.3,13.3,3.3,13.3z"/>
			</g>
			<g transform="translate(48.612)">
				<path class="st7" d="M3.3,13.3L3.3,13.3C1.5,13.3,0,11.8,0,9.9c0,0,0,0,0,0V0h6.6v9.9C6.6,11.8,5.1,13.3,3.3,13.3
					C3.3,13.3,3.3,13.3,3.3,13.3z"/>
			</g>
			<g transform="translate(55.241)">
				<path class="st6" d="M3.3,13.3L3.3,13.3C1.5,13.3,0,11.8,0,9.9c0,0,0,0,0,0V0h6.6v9.9C6.6,11.8,5.1,13.3,3.3,13.3
					C3.3,13.3,3.3,13.3,3.3,13.3z"/>
			</g>
			<g transform="translate(61.87)">
				<path class="st7" d="M3.3,13.3L3.3,13.3C1.5,13.3,0,11.8,0,9.9c0,0,0,0,0,0V0h4.4c1.2,0,2.2,1,2.2,2.2v7.7
					C6.6,11.8,5.1,13.3,3.3,13.3C3.3,13.3,3.3,13.3,3.3,13.3z"/>
			</g>
			<g transform="translate(32.04 18.782)">
				<path class="st8" d="M28.7,0H1.1C0.5,0,0,0.5,0,1.1v0v22.1c0,0.6,0.5,1.1,1.1,1.1h0h27.6c0.6,0,1.1-0.5,1.1-1.1v0V1.1
					C29.8,0.5,29.3,0,28.7,0z"/>
			</g>
			<g transform="translate(31.124 18.782)">
				<path class="st9" d="M23.8,24.3h5.9c0.6,0,1.1-0.5,1.1-1.1v0v-1.3L8.9,0H0.9C0.5,0,0.2,0.2,0,0.5L23.8,24.3z"/>
			</g>
			<g transform="translate(30.935 17.677)">
				<g transform="translate(0 0)">
					<path class="st4" d="M29.8,26.5H2.2c-1.2,0-2.2-1-2.2-2.2V2.2C0,1,1,0,2.2,0h27.6C31,0,32,1,32,2.2v22.1
						C32,25.5,31,26.5,29.8,26.5z M2.2,2.2v22.1h27.6V2.2H2.2z"/>
				</g>
			</g>
			<g transform="translate(12.153 19.887)">
				<path class="st8" d="M12.2,12.2H1.1c-0.6,0-1.1-0.5-1.1-1.1l0,0v-10C0,0.5,0.5,0,1.1,0c0,0,0,0,0,0h11c0.6,0,1.1,0.5,1.1,1.1
					l0,0V11C13.3,11.7,12.8,12.1,12.2,12.2C12.2,12.2,12.2,12.2,12.2,12.2z"/>
			</g>
		</g>
	</g>
</g>
</svg>
