<svg enable-background="new 0 0 65 45" viewBox="0 0 65 45" xmlns="http://www.w3.org/2000/svg" xmlns:xlink="http://www.w3.org/1999/xlink"><clipPath id="a"><path d="m0 0h65v45h-65z"/></clipPath><g clip-path="url(#a)"><path d="m0 0h65v45h-65z" fill="none"/><g transform="translate(-577.94 -182.851)"><path d="m590.9 196.3v9.9c.4 1.3 1.6 2.1 2.9 2.1 1.4.1 2.7-1 2.7-2.5v-.1-4.9h4.3v4.9c0 2.7-3.5 4.2-6.1 4.2-1.4 0-2.8-.4-3.9-1.2v10.9h6.9c2.8-.1 5.1-2.4 5.3-5.3v-23.5h-6.7c-2.8-.2-5.3 1.9-5.5 4.8.1.2.1.4.1.7z" fill="#0f549d"/><path d="m604.6 196.3v5.5c.8-.7 1.7-1.1 2.8-1.1h7.3v1.5c-1.4-.3-2.8-.5-4.3-.6-1.8 0-3.2 1.5-3.2 3.3s1.5 3.2 3.2 3.2c1.4 0 2.9-.2 4.3-.5v1.4h-7.3c-1 0-2-.4-2.8-1.1v11.5h6.9c2.8-.1 5.1-2.4 5.3-5.3v-23.5h-6.7c-2.8-.2-5.3 1.9-5.5 4.8z" fill="#b41f36"/><g fill="#329947"><path d="m625.1 203.1c0-.8-.7-1.4-1.4-1.4h-3v2.9h3c.7-.1 1.4-.7 1.4-1.5z"/><path d="m624 190.9c-2.8-.2-5.3 1.9-5.5 4.8v.6 4.4h8.1c1.2 0 2.1 1 2.1 2.1s-1 2.1-2.1 2.1c1.1-.1 2.2.7 2.3 1.8s-.7 2.2-1.8 2.3c-.1 0-.3 0-.4 0h-8.1v10.5h6.9c2.8-.1 5.1-2.4 5.3-5.3v-23.5h-6.8z"/><path d="m623.7 205.3h-3v2.9h3c.8 0 1.4-.6 1.4-1.4s-.6-1.5-1.4-1.5z"/></g></g></g></svg>