<?xml version="1.0" encoding="utf-8"?>
<!-- Generator: Adobe Illustrator 23.0.3, SVG Export Plug-In . SVG Version: 6.00 Build 0)  -->
<svg version="1.1" id="圖層_1" xmlns="http://www.w3.org/2000/svg" xmlns:xlink="http://www.w3.org/1999/xlink" x="0px" y="0px"
	 viewBox="0 0 22 22" style="enable-background:new 0 0 22 22;" xml:space="preserve">
<style type="text/css">
	.st0{clip-path:url(#SVGID_2_);}
	.st1{fill:#62A1D2;}
	.st2{fill:#FFFFFF;}
</style>
<g>
	<defs>
		<rect id="SVGID_1_" width="22" height="22"/>
	</defs>
	<clipPath id="SVGID_2_">
		<use xlink:href="#SVGID_1_"  style="overflow:visible;"/>
	</clipPath>
	<g class="st0">
		<path class="st1" d="M22,11c0-6.1-4.9-11-11-11S0,4.9,0,11s4.9,11,11,11S22,17.1,22,11z"/>
		<path class="st2" d="M6.1,7.7c0-0.7,0.2-1.3,0.6-1.9c0.4-0.7,1-1.2,1.7-1.6c0.8-0.4,1.7-0.6,2.7-0.6c0.9,0,1.7,0.2,2.5,0.5
			c0.7,0.3,1.3,0.8,1.7,1.4c0.4,0.6,0.6,1.3,0.6,1.9c0,0.5-0.1,1-0.3,1.5c-0.2,0.4-0.5,0.8-0.8,1.1c-0.3,0.3-0.9,0.8-1.7,1.5
			c-0.2,0.2-0.4,0.3-0.5,0.5c-0.1,0.1-0.2,0.3-0.3,0.4c-0.1,0.1-0.1,0.2-0.2,0.4c0,0.1-0.1,0.3-0.2,0.7c0,0.6-0.6,1.1-1.2,1
			c0,0,0,0,0,0c-0.3,0-0.6-0.1-0.9-0.3c-0.2-0.3-0.4-0.6-0.3-1c0-0.9,0.3-1.8,0.9-2.5c0.4-0.4,0.7-0.7,1.1-1.1
			c0.4-0.4,0.7-0.6,0.9-0.8c0.2-0.2,0.3-0.4,0.5-0.6c0.1-0.2,0.2-0.5,0.2-0.7c0-0.5-0.2-1-0.6-1.3c-0.4-0.4-0.9-0.6-1.5-0.5
			c-0.6,0-1.2,0.1-1.6,0.5c-0.4,0.5-0.7,1-0.9,1.6C8.5,8.6,8,8.9,7.4,8.9c-0.3,0-0.7-0.1-0.9-0.4C6.3,8.3,6.1,8,6.1,7.7z M10.9,18.4
			c-0.4,0-0.8-0.1-1-0.4c-0.3-0.3-0.5-0.7-0.4-1.1c0-0.4,0.1-0.8,0.4-1c0.3-0.3,0.7-0.4,1.1-0.4c0.8,0,1.4,0.6,1.5,1.4c0,0,0,0,0,0
			c0,0.4-0.1,0.8-0.4,1.1C11.6,18.2,11.3,18.4,10.9,18.4z"/>
	</g>
</g>
</svg>
