<svg enable-background="new 0 0 65 45" viewBox="0 0 65 45" xmlns="http://www.w3.org/2000/svg" xmlns:xlink="http://www.w3.org/1999/xlink"><clipPath id="a"><path d="m0 0h65v45h-65z"/></clipPath><g clip-path="url(#a)"><path d="m0 0h65v45h-65z" fill="none"/><g transform="translate(4 -161.6)"><g fill="#00548d" transform="translate(5.733 175.6)"><path d="m18.6.5h-.8l-2.8 16.2h4.6l2.8-16.1h-3.8z"/><path d="m35 11.4c0-1.9-1.2-3.3-3.9-4.5-1.6-.8-2.6-1.3-2.6-2.1 0-.7.8-1.4 2.6-1.4 1.2 0 2.3.2 3.4.6l.5.2.7-3.5c-1.3-.5-2.7-.7-4.1-.7-4.5 0-7.7 2.2-7.7 5.5 0 2.4 2.2 3.7 4 4.5.8.3 1.6.8 2.1 1.4l-.3-.3c.1.1.3.3.4.4s.1.3.1.5c0 1.1-1.4 1.6-2.7 1.6-1.5 0-3-.3-4.3-.9l-.6-.3-.6 3.7v.1c1.6.6 3.4.9 5.1.9 2.9 0 5.2-.8 6.5-2.2l-.1-.1c1-.9 1.5-2.1 1.5-3.4z"/><path d="m9.6 15.2 6.6-14.6h-4.8l-3.2 7.7-1.4 3.4-.4-2.3c-1.2-3.1-3.4-5.6-6.3-7.1v.2l-.1-.1 4 14.3h4.8v-.1z"/><path d="m49.2 10.1-2.2-9.6h-3.5c-1.1 0-1.9.1-2.3 1.2l-6.7 15h4.8l.9-2.7h5.7l.5 2.7h4.3zm-5.4-5.2.3 1.5s.8 3.8 1.1 4.8h-3.7c.2-.6.9-2.4 1.4-3.7l.1-.2.1-.3.2-.6s.1-.2.2-.6.2-.6.3-.9z"/></g><path d="m12 184.9v.1l-.2-.7-1.4-6.8c-.3-1.1-1.1-1.3-2.1-1.3h-8.3l2.9.9c3.3 1.1 6.1 3.2 8.1 6 .4.6.7 1.3 1 2z" fill="#ea9700"/></g></g></svg>