<?xml version="1.0" encoding="utf-8"?>
<!-- Generator: Adobe Illustrator 23.0.3, SVG Export Plug-In . SVG Version: 6.00 Build 0)  -->
<svg version="1.1" id="圖層_1" xmlns="http://www.w3.org/2000/svg" xmlns:xlink="http://www.w3.org/1999/xlink" x="0px" y="0px"
	 viewBox="0 0 10 10" style="enable-background:new 0 0 10 10;" xml:space="preserve">
<style type="text/css">
	.st0{clip-path:url(#SVGID_2_);}
	.st1{fill:#B3ABA6;}
</style>
<g>
	<defs>
		<rect id="SVGID_1_" width="10" height="10"/>
	</defs>
	<clipPath id="SVGID_2_">
		<use xlink:href="#SVGID_1_"  style="overflow:visible;"/>
	</clipPath>
	<g class="st0">
		<path class="st1" d="M1,4h8c0.6,0,1,0.4,1,1l0,0c0,0.6-0.4,1-1,1H1C0.4,6,0,5.6,0,5l0,0C0,4.4,0.4,4,1,4z"/>
		<path class="st1" d="M4,9V1c0-0.6,0.4-1,1-1l0,0c0.6,0,1,0.4,1,1v8c0,0.6-0.4,1-1,1l0,0C4.4,10,4,9.6,4,9z"/>
	</g>
</g>
</svg>
