<svg enable-background="new 0 0 65 45" viewBox="0 0 65 45" xmlns="http://www.w3.org/2000/svg" xmlns:xlink="http://www.w3.org/1999/xlink"><clipPath id="a"><path d="m0 0h65v45h-65z"/></clipPath><g clip-path="url(#a)"><path d="m0 0h65v45h-65z" fill="none"/><g transform="translate(6 -48.719)"><path d="m33.6 71.5c0 9.3-7.5 16.8-16.8 16.8s-16.8-7.5-16.8-16.8 7.5-16.8 16.8-16.8 16.8 7.5 16.8 16.8z" fill="#e2574c"/><path d="m37 54.7c-3.6 0-7.2 1.2-10 3.4.6.5 1.1 1 1.6 1.5l-3.5.1c-.5.6-1.1 1.2-1.5 1.8h6.2c.5.5.9 1.1 1.3 1.7h-8.6c-.3.5-.6 1.1-.9 1.7h10.4c.3.5.5 1.1.7 1.6h-11.7c-.2.6-.3 1.2-.5 1.8h12.7c.1.6.2 1.1.3 1.7h-13.2c-.1.6-.1 1.1-.1 1.7h13.4c0 .6 0 1.1-.1 1.7h-13.2c.1.6.1 1.1.3 1.7h12.7c-.1.5-.3 1.1-.5 1.7h-11.8c.2.6.4 1.1.6 1.7h10.4c-.3.6-.6 1.1-1 1.7h-8.6c.3.6.7 1.1 1.1 1.7l6.2.1c-.6.6-1.2 1.1-1.8 1.6 0 0-1 0-3 0 6.5 6.7 17.1 6.8 23.8.4 6.7-6.5 6.8-17.1.4-23.8-3.2-3.6-7.5-5.5-12.1-5.5z" fill="#f4b459"/></g></g></svg>