<?xml version="1.0" encoding="utf-8"?>
<!-- Generator: Adobe Illustrator 23.0.3, SVG Export Plug-In . SVG Version: 6.00 Build 0)  -->
<svg version="1.1" id="圖層_1" xmlns="http://www.w3.org/2000/svg" xmlns:xlink="http://www.w3.org/1999/xlink" x="0px" y="0px"
	 viewBox="0 0 25 25" style="enable-background:new 0 0 25 25;" xml:space="preserve">
<style type="text/css">
	.st0{clip-path:url(#SVGID_2_);}
	.st1{fill:#B3ABA6;}
	.st2{fill:#FFFFFF;}
</style>
<g>
	<defs>
		<rect id="SVGID_1_" width="25" height="25"/>
	</defs>
	<clipPath id="SVGID_2_">
		<use xlink:href="#SVGID_1_"  style="overflow:visible;"/>
	</clipPath>
	<g class="st0">
		<path class="st1" d="M12.5,0L12.5,0C19.4,0,25,5.6,25,12.5l0,0C25,19.4,19.4,25,12.5,25l0,0C5.6,25,0,19.4,0,12.5l0,0
			C0,5.6,5.6,0,12.5,0z"/>
		<g transform="translate(6.875 5.625)">
			<path class="st2" d="M10,1.9H8.5V1.7C8.5,0.7,7.8,0,6.8,0H4.5C3.6,0,2.9,0.7,2.9,1.7v0.2H1.4C0.6,1.9,0,2.5,0,3.3c0,0,0,0,0,0v1
				c0,0.3,0.2,0.5,0.5,0.5l0,0h0.4l0.6,8.5c0,0.2,0.2,0.4,0.5,0.4h7.6c0.2,0,0.4-0.2,0.5-0.4l0.6-8.5h0.4c0.3,0,0.5-0.2,0.5-0.5
				c0,0,0,0,0,0v-1C11.4,2.5,10.8,1.9,10,1.9C10,1.9,10,1.9,10,1.9z M3.8,1.7c0-0.4,0.3-0.8,0.8-0.8h2.3c0.4,0,0.8,0.3,0.8,0.8v0.2
				H3.8V1.7z M0.9,3.3c0-0.3,0.2-0.5,0.5-0.5H10c0.3,0,0.5,0.2,0.5,0.5v0.5H0.9L0.9,3.3z M9.1,12.7H2.3l-0.6-8h7.9L9.1,12.7z"/>
			<path class="st2" d="M5.7,11.8c0.3,0,0.5-0.2,0.5-0.5V6.1c0-0.3-0.2-0.5-0.5-0.5S5.2,5.8,5.2,6.1v5.3C5.2,11.6,5.4,11.8,5.7,11.8
				C5.7,11.8,5.7,11.8,5.7,11.8z"/>
			<path class="st2" d="M7.5,11.8L7.5,11.8c0.3,0,0.5-0.2,0.5-0.4l0.3-5.3c0-0.3-0.2-0.5-0.4-0.5c-0.3,0-0.5,0.2-0.5,0.4l0,0
				l-0.3,5.3C7,11.6,7.2,11.8,7.5,11.8C7.5,11.8,7.5,11.8,7.5,11.8z"/>
			<path class="st2" d="M3.9,11.8L3.9,11.8c0.3,0,0.5-0.2,0.5-0.5c0,0,0,0,0,0L4,6.1c0-0.3-0.2-0.4-0.5-0.4c-0.3,0-0.4,0.2-0.4,0.5
				l0.3,5.3C3.4,11.6,3.6,11.8,3.9,11.8z"/>
		</g>
	</g>
</g>
</svg>
